 <svg  version="1.0" xmlns="http://www.w3.org/2000/svg"  width="300.000000pt" height="300.000000pt" viewBox="0 0 300.000000 300.000000"  preserveAspectRatio="xMidYMid meet">  <g transform="translate(0.000000,300.000000) scale(0.050000,-0.050000)" fill="#ffe7d7" stroke="none"> <path d="M2690 5379 c-1641 -222 -2571 -1984 -1828 -3463 416 -828 1199 -1304 2148 -1304 2058 0 3149 2413 1797 3975 -498 576 -1353 895 -2117 792z m722 -211 c1705 -300 2403 -2414 1212 -3670 -1352 -1425 -3697 -592 -3834 1362 -101 1431 1184 2562 2622 2308z"/> <path d="M2898 4839 c-115 -19 -209 -66 -294 -146 -57 -55 -81 -63 -181 -65 -401 -8 -599 -468 -330 -768 50 -55 103 -100 118 -100 21 0 28 -78 33 -385 7 -440 28 -513 207 -712 124 -138 109 -173 -114 -260 -450 -176 -601 -379 -614 -827 -9 -333 18 -360 475 -478 653 -168 1735 -78 2015 167 l71 63 -8 251 c-14 450 -155 642 -606 823 -223 89 -240 129 -113 267 173 188 208 318 205 753 l-3 333 62 25 c74 31 167 161 198 277 73 271 -152 564 -440 572 -104 2 -127 11 -184 66 -121 118 -317 174 -497 144z m225 -180 c45 -12 118 -63 187 -131 80 -79 122 -107 146 -98 306 121 555 -301 298 -503 -51 -40 -53 -40 -196 -4 -338 86 -797 85 -1113 -3 l-133 -37 -86 86 c-208 208 -10 549 274 473 l90 -25 80 91 c129 146 285 198 453 151z m97 -839 c94 -11 217 -30 273 -43 l104 -23 6 -127 c4 -70 3 -127 -3 -127 -5 1 -86 15 -180 32 -276 52 -629 43 -966 -24 l-56 -12 6 127 6 126 115 26 c274 60 459 72 695 45z m159 -443 c245 -34 249 -37 234 -175 -86 -829 -1141 -844 -1225 -18 -17 169 -12 171 512 224 88 8 287 -4 479 -31z m-448 -968 c70 -9 142 -3 230 21 223 59 254 31 125 -112 -135 -150 -277 -228 -342 -187 -270 172 -424 429 -198 329 46 -21 130 -43 185 -51z m-324 -180 c42 -50 112 -114 156 -143 90 -60 88 -64 -67 -125 -170 -67 -176 -83 -176 -460 0 -190 -8 -321 -19 -321 -10 0 -64 10 -119 21 l-99 22 11 136 c17 204 -16 282 -104 248 -23 -9 -30 -48 -30 -179 0 -191 6 -187 -170 -120 l-120 46 0 208 c0 363 106 522 450 673 230 102 197 103 287 -6z m1029 28 c372 -154 491 -319 493 -686 l1 -201 -110 -54 c-178 -88 -187 -83 -171 91 12 122 8 153 -19 180 -78 78 -108 29 -114 -188 l-6 -189 -170 -23 c-93 -13 -330 -25 -525 -25 l-355 -2 0 322 c0 317 1 322 45 333 159 41 531 258 645 376 66 68 123 125 126 127 4 1 76 -26 160 -61z"/> <path d="M2793 1687 c-21 -22 -15 -97 11 -123 60 -60 149 0 128 86 -12 49 -102 73 -139 37z"/> </g> </svg> 