 <svg  version="1.0" xmlns="http://www.w3.org/2000/svg"  width="300.000000pt" height="300.000000pt" viewBox="0 0 300.000000 300.000000"  preserveAspectRatio="xMidYMid meet">  <g transform="translate(0.000000,300.000000) scale(0.050000,-0.050000)" fill="#ffe7d7" stroke="none"> <path d="M2780 5407 c-27 -4 -117 -17 -200 -29 -962 -143 -1778 -962 -1952 -1960 -317 -1821 1446 -3309 3192 -2693 1786 629 2150 3059 630 4211 -443 336 -1179 543 -1670 471z m602 -196 c1596 -280 2378 -2101 1486 -3462 l-78 -119 -13 240 c-25 472 -178 669 -633 819 -155 51 -173 104 -75 213 153 168 180 264 188 648 l6 340 71 59 c286 235 132 701 -239 727 -102 8 -137 20 -191 67 -184 161 -503 160 -674 -2 -50 -47 -82 -58 -185 -65 -374 -25 -526 -491 -237 -729 l69 -57 6 -341 c8 -376 49 -518 194 -656 83 -80 57 -162 -62 -194 -124 -34 -278 -107 -347 -165 l-63 -53 -133 158 c-127 151 -238 224 -289 193 -53 -33 -66 50 -16 90 203 159 -345 665 -876 808 -204 56 -291 -44 -265 -302 39 -381 611 -775 942 -649 69 27 78 1 30 -91 -57 -110 -39 -187 72 -317 l93 -109 4 -326 c4 -295 8 -336 52 -432 101 -227 318 -277 478 -110 l89 93 -13 -130 c-20 -192 9 -223 251 -259 252 -38 900 -35 1081 5 174 39 170 23 -20 -77 -1483 -785 -3256 216 -3319 1874 -54 1446 1205 2558 2616 2311z m350 -523 c37 -18 95 -63 128 -101 57 -65 65 -68 157 -56 236 32 404 -208 284 -405 -63 -103 -103 -114 -257 -73 -105 29 -208 37 -474 37 -266 0 -369 -8 -474 -37 -154 -41 -194 -30 -257 73 -120 197 47 436 282 404 93 -13 100 -10 158 56 114 130 303 173 453 102z m263 -770 l125 -25 0 -114 0 -113 -105 31 c-146 42 -741 42 -890 -1 l-105 -30 0 115 0 115 145 24 c80 13 159 27 175 31 63 15 536 -9 655 -33z m-2603 -360 c258 -108 688 -429 688 -514 0 -111 -541 176 -771 410 -173 175 -151 201 83 104z m2544 8 l189 -33 -9 -152 c-46 -760 -1096 -739 -1096 22 l0 133 145 24 c80 13 159 26 175 29 96 19 435 6 596 -23z m-2507 -396 c70 -50 210 -131 314 -181 l187 -91 -131 7 c-229 11 -491 183 -597 391 -63 123 -51 142 30 47 39 -46 128 -124 197 -173z m2001 -483 c111 -32 253 -23 368 25 204 85 99 -122 -128 -254 -126 -73 -124 -73 -257 17 -179 122 -268 300 -126 255 24 -8 88 -27 143 -43z m-1030 -172 c202 -228 217 -257 172 -324 -63 -97 -92 -82 -308 165 -172 196 -189 239 -124 304 64 64 88 50 260 -145z m790 -30 c47 -53 109 -108 138 -124 71 -38 67 -44 -57 -98 -181 -78 -174 -56 -172 -571 l2 -452 -55 0 c-142 1 -137 -13 -129 349 8 354 -6 418 -83 407 -35 -5 -47 -27 -65 -116 l-22 -110 -15 100 c-9 55 -24 130 -35 166 -15 47 -14 73 3 94 28 34 36 162 14 224 -19 52 61 111 246 182 144 55 131 58 230 -51z m1009 34 c344 -133 425 -272 437 -751 l8 -321 -125 -114 c-69 -62 -131 -113 -137 -113 -7 0 -12 163 -12 363 0 316 -4 365 -33 384 -81 51 -97 -8 -97 -367 l0 -336 -65 -11 c-213 -38 -436 -54 -665 -49 l-260 6 -5 446 -6 446 76 30 c238 96 489 237 597 337 141 130 98 123 287 50z m-1783 -498 c25 -13 70 -21 99 -17 53 6 54 4 88 -194 53 -307 35 -370 -104 -370 -134 0 -188 129 -205 496 l-9 186 42 -38 c24 -22 64 -50 89 -63z"/> <path d="M3369 1979 c-63 -69 30 -158 102 -98 38 31 37 68 -2 108 -41 41 -55 39 -100 -10z"/> </g> </svg> 